<svg width="1070" height="452" viewBox="0 0 1070 452" fill="none" xmlns="http://www.w3.org/2000/svg">
<path fill-rule="evenodd" clip-rule="evenodd" d="M428.266 393.248C387.671 393.248 362.182 362.565 362.182 321.97V128.909C362.182 88.7857 387.671 58.1035 427.794 58.1035C467.917 58.1035 493.407 88.7857 493.407 128.909V174.696H449.98V146.846C449.98 129.381 441.955 119.468 428.266 119.468C414.577 119.468 406.553 129.381 406.553 146.846V303.561C406.553 321.498 414.577 331.883 428.738 331.883C442.899 331.883 450.924 321.498 450.924 303.561V271.463H494.351V321.97C494.351 362.565 468.861 393.248 428.266 393.248ZM541.979 263.438V390.887H586.35V263.91L637.329 60.4637H592.014L564.636 179.416H563.692L534.426 60.4637H491.943L541.979 263.438ZM645.25 390.887V60.4637H705.671C752.874 60.4637 777.42 85.0094 777.42 132.213V183.664C777.42 230.868 752.874 255.414 705.671 255.414H689.622V390.887H645.25ZM689.622 194.049H709.919C725.024 194.049 733.049 184.137 733.049 165.727V150.15C733.049 131.741 725.024 121.828 709.919 121.828H689.622V194.049ZM792.301 60.4637V390.887H836.672V255.414H875.378V390.887H919.75V60.4637H875.378V194.049H836.672V60.4637H792.301ZM938.428 60.4637V390.887H982.799V265.326H1000.26C1015.84 265.326 1024.81 274.767 1024.81 294.592V390.887H1069.18V286.568C1069.18 255.414 1056.91 238.892 1037.56 232.756V231.812C1059.27 225.676 1068.24 209.626 1068.24 178.944V132.213C1068.24 85.0094 1043.69 60.4637 996.488 60.4637H938.428ZM1000.26 203.962H982.799V121.828H1000.74C1015.84 121.828 1023.87 131.741 1023.87 150.15V177.056C1023.87 194.521 1015.37 203.962 1000.26 203.962Z" fill="#070809"/>
<path fill-rule="evenodd" clip-rule="evenodd" d="M238.4 373.27C262.866 336.57 278.733 284.569 278.733 226C278.733 167.431 262.866 115.43 238.4 78.7301C213.828 41.8726 182.365 22.6 150.667 22.6C118.969 22.6 87.5052 41.8726 62.9336 78.7301C38.4673 115.43 22.6 167.431 22.6 226C22.6 284.569 38.4673 336.57 62.9336 373.27C87.5052 410.127 118.969 429.4 150.667 429.4C182.365 429.4 213.828 410.127 238.4 373.27ZM150.667 452C233.878 452 301.333 350.816 301.333 226C301.333 101.184 233.878 0 150.667 0C67.4558 0 0 101.184 0 226C0 350.816 67.4558 452 150.667 452ZM179.57 64.0675C179.57 60.3298 176.54 57.2998 172.802 57.2998H130.391C126.653 57.2998 123.623 60.3298 123.623 64.0675V78.5053C123.623 82.243 120.593 85.273 116.856 85.273H102.418C98.6801 85.273 95.6501 88.303 95.6501 92.0406V106.478C95.6501 110.216 92.6201 113.246 88.8824 113.246H88.4312C84.6935 113.246 81.6635 116.276 81.6635 120.014V134.452C81.6635 138.189 78.6335 141.219 74.8958 141.219H74.4446C70.707 141.219 67.677 144.249 67.677 147.987V211.152V239.125V302.29C67.677 306.028 70.707 309.058 74.4446 309.058H74.8958C78.6335 309.058 81.6635 312.088 81.6635 315.826V330.264C81.6635 334.001 84.6935 337.031 88.4312 337.031H88.8824C92.6201 337.031 95.6501 340.061 95.6501 343.799V358.237C95.6501 361.974 98.6801 365.004 102.418 365.004H116.856C120.593 365.004 123.623 368.034 123.623 371.772V386.21C123.623 389.948 126.653 392.977 130.391 392.977H172.802C176.54 392.977 179.57 389.948 179.57 386.21V371.772C179.57 368.034 182.6 365.004 186.337 365.004H200.775C204.513 365.004 207.543 361.974 207.543 358.237V343.799C207.543 340.061 210.573 337.031 214.31 337.031H214.762C218.499 337.031 221.529 334.001 221.529 330.264V315.826C221.529 312.088 224.559 309.058 228.297 309.058H228.748C232.486 309.058 235.516 306.028 235.516 302.29V259.879C235.516 256.142 232.486 253.112 228.748 253.112H214.31C210.573 253.112 207.543 256.142 207.543 259.879V260.331C207.543 264.068 204.513 267.098 200.775 267.098H200.324C196.586 267.098 193.556 270.128 193.556 273.866V302.29C193.556 306.028 190.526 309.058 186.788 309.058H116.404C112.667 309.058 109.637 306.028 109.637 302.29V273.866C109.637 270.128 106.607 267.098 102.869 267.098H102.418C98.6801 267.098 95.6501 264.068 95.6501 260.331V239.125V211.152V189.947C95.6501 186.209 98.6801 183.179 102.418 183.179H102.869C106.607 183.179 109.637 180.149 109.637 176.411V147.987C109.637 144.249 112.667 141.219 116.404 141.219H186.788C190.526 141.219 193.556 144.249 193.556 147.987V176.411C193.556 180.149 196.586 183.179 200.324 183.179H200.775C204.513 183.179 207.543 186.209 207.543 189.947V190.398C207.543 194.136 210.573 197.166 214.31 197.166H228.748C232.486 197.166 235.516 194.136 235.516 190.398V147.987C235.516 144.249 232.486 141.219 228.748 141.219H228.297C224.559 141.219 221.529 138.189 221.529 134.452V120.014C221.529 116.276 218.499 113.246 214.762 113.246H214.31C210.573 113.246 207.543 110.216 207.543 106.478V92.0406C207.543 88.303 204.513 85.273 200.775 85.273H186.337C182.6 85.273 179.57 82.243 179.57 78.5053V64.0675Z" fill="#070809"/>
</svg>
