<svg width="497" height="745" viewBox="0 0 497 745" fill="none" xmlns="http://www.w3.org/2000/svg">
<path d="M477.956 372.433C477.956 472.114 450.986 561.516 408.361 625.453C365.649 689.521 308.688 726.244 248.289 726.244C187.889 726.244 130.928 689.521 88.2162 625.453C45.5911 561.516 18.6217 472.114 18.6217 372.433C18.6217 272.752 45.5911 183.35 88.2162 119.413C130.928 55.3447 187.889 18.6217 248.289 18.6217C308.688 18.6217 365.649 55.3447 408.361 119.413C450.986 183.35 477.956 272.752 477.956 372.433Z" stroke="#070809" stroke-width="37.2433"/>
<path fill-rule="evenodd" clip-rule="evenodd" d="M295.92 105.578C295.92 99.419 290.927 94.4258 284.768 94.4258H214.877C208.718 94.4258 203.725 99.419 203.725 105.578V129.371C203.725 135.53 198.731 140.523 192.572 140.523H168.78C162.62 140.523 157.627 145.517 157.627 151.676V175.468C157.627 181.628 152.634 186.621 146.474 186.621H145.731C139.571 186.621 134.578 191.614 134.578 197.774V221.566C134.578 227.726 129.585 232.719 123.425 232.719H122.682C116.523 232.719 111.53 237.712 111.53 243.872V347.966C111.53 347.966 111.529 347.966 111.529 347.966C111.529 347.966 111.529 347.966 111.529 347.966V498.156C111.529 504.315 116.523 509.308 122.682 509.308H123.425C129.585 509.308 134.578 514.302 134.578 520.461V544.254C134.578 550.413 139.571 555.406 145.731 555.406H146.474C152.634 555.406 157.627 560.4 157.627 566.559V590.351C157.627 596.511 162.62 601.504 168.78 601.504H192.572C198.731 601.504 203.725 606.497 203.725 612.657V636.449C203.725 642.608 208.718 647.602 214.877 647.602H284.768C290.927 647.602 295.92 642.608 295.92 636.449V612.657C295.92 606.497 300.914 601.504 307.073 601.504H330.866C337.025 601.504 342.018 596.511 342.018 590.351V566.559C342.018 560.399 347.012 555.406 353.171 555.406H353.916C360.075 555.406 365.069 550.413 365.069 544.254V520.461C365.069 514.302 370.062 509.309 376.221 509.309H376.965C383.124 509.309 388.117 504.315 388.117 498.156V428.266C388.117 422.106 383.124 417.113 376.965 417.113H353.172C347.013 417.113 342.02 422.106 342.02 428.266V429.009C342.02 435.168 337.026 440.162 330.867 440.162H330.123C323.964 440.162 318.971 445.155 318.971 451.314V498.155C318.971 504.315 313.977 509.308 307.818 509.308H191.829C185.669 509.308 180.676 504.315 180.676 498.155V451.314C180.676 445.155 175.683 440.162 169.523 440.162H168.78C162.62 440.162 157.627 435.168 157.627 429.009L157.627 394.061V313.018C157.627 306.859 162.621 301.866 168.78 301.866H169.523C175.683 301.866 180.676 296.873 180.676 290.713V243.872C180.676 237.712 185.669 232.719 191.829 232.719H307.818C313.977 232.719 318.971 237.712 318.971 243.872V290.713C318.971 296.873 323.964 301.866 330.123 301.866H330.867C337.026 301.866 342.019 306.859 342.019 313.019V313.762C342.019 319.921 347.013 324.915 353.172 324.915H376.965C383.124 324.915 388.117 319.921 388.117 313.762V243.872C388.117 237.712 383.124 232.719 376.965 232.719H376.221C370.062 232.719 365.069 227.726 365.069 221.566V197.774C365.069 191.614 360.075 186.621 353.916 186.621H353.171C347.012 186.621 342.018 181.628 342.018 175.468V151.676C342.018 145.517 337.025 140.523 330.866 140.523H307.073C300.914 140.523 295.92 135.53 295.92 129.371V105.578Z" fill="#070809"/>
</svg>
